PathFileType	4	(X/Y/Z)	Patient4_TMGait_0pt4_02_right_43.trc.trc
DataRate	CameraRate	NumFrames	NumMarkers	Units	OrigDataRate	OrigDataStartFrame	OrigNumFrames
75.675675675676	75.675675675676	4	33	mm	75.675675675676	53	       141
Frame#	Time	Sacral			L.Shoulder			Chest			R.Shoulder			Neck			R.ASIS			L.ASIS			R.Thigh.Superior			R.Thigh.Lateral			R.Thigh.Inferior			R.Patella			L.Thigh.Superior			L.Thigh.Lateral			L.Thigh.Inferior			L.Patella			L.Shank.Superior			L.Shank.Lateral			L.Shank.Inferior			R.Shank.Superior			R.Shank.Lateral			R.Shank.Inferior			R.Heel			R.Midfoot.Superior			R.Midfoot.Lateral			R.Toe			L.Heel			L.Midfoot.Lateral			L.Midfoot.Superior			L.Toe			L.Elbow			L.Wrist			R.Elbow			R.Wrist			
		X1	Y1	Z1	X2	Y2	Z2	X3	Y3	Z3	X4	Y4	Z4	X5	Y5	Z5	X6	Y6	Z6	X7	Y7	Z7	X8	Y8	Z8	X9	Y9	Z9	X10	Y10	Z10	X11	Y11	Z11	X12	Y12	Z12	X13	Y13	Z13	X14	Y14	Z14	X15	Y15	Z15	X16	Y16	Z16	X17	Y17	Z17	X18	Y18	Z18	X19	Y19	Z19	X20	Y20	Z20	X21	Y21	Z21	X22	Y22	Z22	X23	Y23	Z23	X24	Y24	Z24	X25	Y25	Z25	X26	Y26	Z26	X27	Y27	Z27	X28	Y28	Z28	X29	Y29	Z29	X30	Y30	Z30	X31	Y31	Z31	X32	Y32	Z32	X33	Y33	Z33	

53	57.347142857143	817.634934781409	1004.680594127042	562.433056212841	976.765712949232	1434.222415903112	368.366792217873	1092.209998220637	1370.464520363227	522.655365875390	1020.103845300883	1441.828469697617	702.795258471693	968.382971930091	1498.235890285836	525.564295073737	1055.018385702180	945.200814227659	664.564093916439	1022.139476380678	967.593636213184	392.635413775107	1089.468278983961	740.219295036147	631.490759330225	1009.290716439255	632.854463017092	696.734664963425	1079.489209490029	579.320275851370	611.695459193893	1076.571685638387	492.403755435267	616.798888808844	1115.936531132137	791.940599315216	417.473921039351	1079.134453938283	665.545853094053	334.569211855277	1188.850407136183	610.031574410629	391.943775841706	1208.409306289113	523.000314362711	381.804786120343	1148.367117953713	451.504762951636	371.605071788744	1010.940795814970	395.958267408415	324.905875077568	1016.621415297580	262.476456347959	370.810825715238	1047.997639399096	403.478754360703	626.095857664308	977.898926304207	300.936764682920	690.360471033256	1014.189129509600	205.583288542833	625.161244810651	877.146386713744	42.251953941706	600.191545222530	1047.838168569341	97.184242815405	633.389857872898	960.945761248752	36.429938942183	674.246414161441	1168.973271217477	46.590130764168	660.539434442787	838.464364376535	182.816937090017	412.606793971546	893.167313877090	141.023412339152	328.549996555025	998.676699997456	152.553054916593	345.404447995298	1078.309331194146	43.581084069237	310.255423705032	902.941786174640	1084.654107377786	266.821666655304	924.733701825770	823.799391880395	268.280764395678	1086.862792760937	1111.633501812592	846.279897208115	1332.195299800773	1053.194176106576	803.743163573158	
54	57.360357142857	816.834829906276	1005.785423789763	564.322965458371	976.085679411489	1434.519976988120	369.104243713937	1092.648914276429	1370.275087865402	522.328332334794	1022.605404773188	1442.187994620538	703.068085920411	969.393647030532	1498.574351040214	526.200952410877	1054.420565276426	944.989467393947	664.499151469111	1019.688133447694	968.272500514828	392.854787066745	1086.869128059430	739.571405946264	631.154378440511	1006.177435087038	632.868590476271	696.941208288025	1075.395748522980	578.799462549472	611.579076829351	1071.836820363417	492.129282574828	616.709013466975	1114.031205925423	794.006237923745	418.050094662727	1078.429823606471	667.406759378664	335.013548494528	1188.290565506033	612.742225525571	392.687506739802	1209.211745708732	526.759000935431	382.241595528907	1152.073828238734	454.217360875200	371.623710221989	1017.636470961919	392.070813480466	325.179208738284	1030.592426908954	258.774515986334	370.190507197846	1043.158353812149	403.325627708566	626.134657812449	973.066230557786	300.852936819925	690.501348635166	1009.056877720025	205.495129741803	625.181940892905	871.823064538921	42.197282899993	600.247903972484	1042.506650594660	97.166755547963	633.387116611887	955.601488113310	36.394657243368	674.237904614764	1163.611927431728	46.615428788952	660.496124646789	857.523382174066	168.351511549597	412.442116864847	914.079174912959	131.001384208813	327.616044446730	1018.640317698303	148.918058683907	344.046195547663	1104.638351771343	45.922648590277	307.316441569330	894.091194200926	1086.367149366221	269.899423265361	910.627947276323	825.076280459819	274.146535930897	1093.371609302925	1113.082249253208	845.657427777580	1340.450257120924	1069.115624095944	799.606737460994	
55	57.373571428571	816.031170642810	1006.858745378724	566.094224375444	975.443640654404	1434.785971189431	369.752505783674	1093.136486537918	1369.998929614355	521.862126318690	1025.210063710665	1442.429673138712	703.208348560698	970.491731283305	1498.827055058116	526.790086590570	1053.854269821702	944.728044057746	664.218006140595	1017.219393131829	968.874671089134	392.862800769221	1084.224449369523	738.907862615311	630.618622905983	1003.077522327923	632.880714303061	697.076752866613	1071.220838163888	578.272093425071	611.363268480907	1067.022634119526	491.866008625264	616.595403749350	1111.732136204880	795.530121508722	418.473015026544	1077.041749195312	668.765863544011	335.374293909055	1186.766674134630	614.670063551817	393.512511448025	1208.943892013760	529.959217759448	382.770325329135	1155.023171885794	456.525602014554	371.692187191409	1024.385741707828	387.344498069771	325.155243979021	1045.039211221070	254.687864225068	369.481348532010	1038.261293343485	403.173937509218	626.157890158779	968.193174453300	300.763161159148	690.635068522387	1003.886400889418	205.405613275816	625.202438624845	866.485919151784	42.146927711561	600.294495237556	1037.173181800791	97.147364483424	633.384552932345	950.255519338398	36.356959168236	674.231269476636	1158.247816965099	46.631283822016	660.446172269344	877.973467715083	153.125646450905	411.810189693766	936.465643190621	120.529798212539	326.415252225238	1039.587393587011	145.120479203217	342.708825894721	1132.066812518025	48.778727602405	304.734922461147	885.694892341112	1088.196101048617	272.895444039582	897.342394453526	826.590999621951	279.703015095816	1099.717206581270	1114.316949342521	844.676338996103	1347.638381035550	1084.641427443127	795.206334161785	
56	57.386785714286	815.228303766605	1007.879610594477	567.732208130203	974.851207609112	1435.006922975250	370.293657437650	1093.663041830505	1369.632718596226	521.259403994011	1027.875686557719	1442.545263898172	703.207839147193	971.665642167017	1498.985167274270	527.319587101848	1053.327532145933	944.417134074185	663.736712144567	1014.766966390571	969.375727184185	392.668794929519	1081.561253054752	738.231924638520	629.906812741388	1000.019627845425	632.883811373640	697.153545301763	1067.000932205993	577.736239149686	611.062984836349	1062.170041620744	491.608188043472	616.470212490567	1109.065917185196	796.483982567204	418.754201562071	1074.995448115186	669.612359404104	335.627371690806	1184.310332024919	615.795653935128	394.404019401682	1207.653565104097	532.582130095812	383.396169366662	1157.210477375520	458.442974722065	371.846273295588	1031.222268692312	381.993361965312	324.794579270512	1059.764742427210	250.501347039500	368.757039826404	1033.336478408728	403.015680887149	626.170638080070	963.299602146837	300.666655040325	690.767980016124	998.691644868226	205.311303162141	625.226166385813	861.137793060542	42.102010318924	600.336425391122	1031.836956224948	97.125385809849	633.382306347270	944.909508225105	36.317278602452	674.227117323746	1152.883952881717	46.637404605432	660.397068831128	899.561907864660	137.756613131108	410.694164687135	960.069063614194	110.106533553788	325.017228322937	1061.209306485828	141.487176020300	341.523171929813	1160.084472677396	52.325756415963	302.814230556635	877.824170527965	1090.080599972541	275.781452982422	884.914940454791	828.262702351844	284.876690026425	1105.916881694957	1115.335455902616	843.361832939493	1353.824260705253	1099.611319254703	790.588449353041	
